<!DOCTYPE svg PUBLIC "-//W3C//DTD SVG 1.1//EN" "http://www.w3.org/Graphics/SVG/1.1/DTD/svg11.dtd">
<!-- Uploaded to: SVG Repo, www.svgrepo.com, Transformed by: SVG Repo Mixer Tools -->
<svg fill="#1a1a1a" version="1.1" id="Capa_1" xmlns="http://www.w3.org/2000/svg" xmlns:xlink="http://www.w3.org/1999/xlink" width="256px" height="256px" viewBox="0 0 266.605 266.605" xml:space="preserve" transform="rotate(180)matrix(1, 0, 0, 1, 0, 0)" stroke="#1a1a1a">
<g id="SVGRepo_bgCarrier" stroke-width="0"/>
<g id="SVGRepo_tracerCarrier" stroke-linecap="round" stroke-linejoin="round"/>
<g id="SVGRepo_iconCarrier"> <g> <path d="M266.605,132.798l-71.681-94.159L176.566,51.58l-2.955-6.046l-17.343,9.628l-2.967-11.812L0,81.832l28.883,115.097 l38.512-9.67l16.586,34.814l35.523-17.401l22.071,23.295L266.605,132.798z M191.071,63.57l50.076,65.775l-19.305,14.7 l-37.196-75.942L191.071,63.57z M165.708,70.69l36.009,73.515l-20.581,10.072L160.832,73.4L165.708,70.69z M22.026,95.024 l118.07-29.631l20.05,79.875L42.079,174.905L22.026,95.024z M85.366,182.755l77.203-19.387l-70.086,34.323L85.366,182.755z M183.092,173.546l-39.543,30.098l-6.942-7.329L183.092,173.546z"/> </g> </g>
</svg>